<?xml version="1.0" encoding="UTF-8" standalone="no"?><svg id="b" width="40" height="40" viewBox="0 0 40 40" version="1.1" xmlns="http://www.w3.org/2000/svg" xmlns:svg="http://www.w3.org/2000/svg"><defs id="defs59" /><circle id="c" cx="20" cy="20" r="20" fill="#5e27dd" /><path d="m 34.23,19.98 c 0,2.12 -0.41,3.76 -1.2,4.92 -0.81,1.15 -1.84,1.92 -3.07,2.33 -1.25,0.41 -2.68,0.6 -4.29,0.6 H 19.9 v -9.45 h 3.58 v 6.31 h 2.19 c 1.15,0 2.06,-0.09 2.72,-0.25 0.65,-0.18 1.2,-0.6 1.62,-1.29 0.42,-0.67 0.64,-1.73 0.64,-3.18 0,-1.45 -0.21,-2.49 -0.65,-3.16 -0.42,-0.69 -0.97,-1.11 -1.62,-1.29 -0.67,-0.18 -1.57,-0.26 -2.7,-0.26 h -2.15 v -3.11 h 2.15 c 1.61,0 3.04,0.19 4.29,0.6 1.24,0.39 2.26,1.16 3.07,2.33 0.79,1.15 1.2,2.79 1.2,4.89 z" fill="#ffffff" id="path52" /><path d="m 16.38,19.31 c -0.44,-0.88 -1.09,-1.59 -1.96,-2.1 -0.86,-0.53 -1.85,-0.79 -3,-0.79 -1.15,0 -2.14,0.26 -3,0.79 -0.87,0.51 -1.52,1.22 -1.98,2.1 -0.44,0.86 -0.67,1.8 -0.67,2.82 0,1.02 0.23,1.94 0.67,2.82 0.46,0.86 1.11,1.57 1.98,2.1 0.86,0.51 1.85,0.78 3,0.78 1.15,0 2.14,-0.26 3,-0.78 0.86,-0.53 1.52,-1.24 1.96,-2.1 0.46,-0.88 0.69,-1.82 0.69,-2.82 0,-1 -0.23,-1.96 -0.69,-2.82 z m -1.02,5.14 c -0.34,0.71 -0.85,1.29 -1.52,1.73 -0.69,0.44 -1.48,0.67 -2.42,0.67 C 10.48,26.85 9.67,26.62 9,26.18 8.33,25.74 7.82,25.16 7.48,24.45 7.14,23.73 6.97,22.97 6.97,22.14 6.97,21.31 7.15,20.53 7.48,19.83 7.82,19.11 8.33,18.54 9,18.1 c 0.67,-0.44 1.48,-0.65 2.42,-0.65 0.94,0 1.73,0.21 2.42,0.65 0.67,0.44 1.18,1.01 1.52,1.73 0.34,0.71 0.51,1.48 0.51,2.31 0,0.83 -0.18,1.59 -0.51,2.31 z" fill="#ffffff" id="path54" /></svg>