<svg width="110" height="110" viewBox="0 0 110 110" fill="none" xmlns="http://www.w3.org/2000/svg">
<rect width="110" height="110" rx="20" fill="white"/>
<path d="M30.2 30.15H16V79.75H30.2V30.15Z" fill="#571EFA"/>
<path d="M86.9 58.55H58.6C54.6788 58.55 51.5 61.7288 51.5 65.65V72.75C51.5 76.6712 54.6788 79.85 58.6 79.85H86.9C90.8212 79.85 94 76.6712 94 72.75V65.65C94 61.7288 90.8212 58.55 86.9 58.55Z" fill="#571EFA"/>
<path d="M65.6 30.15H44.2C40.2788 30.15 37.1 33.3288 37.1 37.25V44.35C37.1 48.2712 40.2788 51.45 44.2 51.45H65.6C69.5212 51.45 72.7 48.2712 72.7 44.35V37.25C72.7 33.3288 69.5212 30.15 65.6 30.15Z" fill="#571EFA" fill-opacity="0.7"/>
</svg>
